<?xml version="1.0" encoding="utf-8"?>
<!-- Generator: Adobe Illustrator 15.0.0, SVG Export Plug-In . SVG Version: 6.00 Build 0)  -->
<!DOCTYPE svg PUBLIC "-//W3C//DTD SVG 1.1//EN" "http://www.w3.org/Graphics/SVG/1.1/DTD/svg11.dtd">
<svg version="1.1" id="Layer_1" xmlns="http://www.w3.org/2000/svg" xmlns:xlink="http://www.w3.org/1999/xlink" x="0px" y="0px"
	 width="400px" height="118px" viewBox="0 0 400 118" enable-background="new 0 0 400 118" xml:space="preserve">
<g>
	<g>
		<path fill="#6D6E70" d="M50.575,33.176H1.332C0.598,33.176,0,33.773,0,34.51v2.679c0,0.375,0.155,0.713,0.415,0.955v78.312
			c0,0.624,0.508,1.132,1.134,1.132h4.455c0.625,0,1.133-0.508,1.133-1.132v-1.123H44.77v1.123c0,0.624,0.507,1.132,1.129,1.132
			h4.46c0.624,0,1.131-0.508,1.131-1.132V38.159c0.259-0.245,0.421-0.588,0.421-0.971V34.51
			C51.912,33.773,51.312,33.176,50.575,33.176z M2.412,38.521h47.081v13.365H2.412V38.521z M2.412,53.883h47.081v13.365H2.412
			V53.883z M2.412,69.246h47.081v13.362H2.412V69.246z M2.412,84.606h47.081v13.365H2.412V84.606z M2.412,99.969h47.081v13.365
			h-2.726v-0.002H5.139v0.002H2.412V99.969z M5.139,115.589H2.412v-0.257h2.727V115.589z M46.767,115.589v-0.257h2.726v0.257H46.767
			z M49.914,36.522h-0.421l0,0H2.33l0,0H1.998v-1.35h47.917V36.522z"/>
		<path fill="#6D6E70" d="M25.952,42.765c-1.344,0-2.438,1.093-2.438,2.437c0,1.348,1.094,2.442,2.438,2.442
			c1.347,0,2.442-1.095,2.442-2.442C28.394,43.857,27.298,42.765,25.952,42.765z"/>
		<path fill="#6D6E70" d="M25.952,109.09c1.347,0,2.442-1.095,2.442-2.439s-1.096-2.439-2.442-2.439
			c-1.344,0-2.438,1.095-2.438,2.439S24.607,109.09,25.952,109.09z"/>
		<path fill="#6D6E70" d="M25.952,88.848c-1.344,0-2.438,1.095-2.438,2.442c0,1.345,1.094,2.439,2.438,2.439
			c1.347,0,2.442-1.095,2.442-2.439C28.394,89.942,27.298,88.848,25.952,88.848z"/>
		<path fill="#6D6E70" d="M25.952,73.487c-1.344,0-2.438,1.093-2.438,2.439c0,1.345,1.094,2.44,2.438,2.44
			c1.347,0,2.442-1.096,2.442-2.44C28.394,74.58,27.298,73.487,25.952,73.487z"/>
		<circle fill="#6D6E70" cx="25.952" cy="60.564" r="2.439"/>
	</g>
	<g>
		<path fill="#6D6E70" d="M142.623,58.141H57.579c-0.77,0-1.396,0.627-1.396,1.399v3.186c0,0.419,0.188,0.799,0.5,1.054v52.647
			c0,0.64,0.518,1.16,1.155,1.16h5.302c0.638,0,1.157-0.521,1.157-1.16v-1.524h71.61v1.524c0,0.64,0.519,1.16,1.156,1.16h5.301
			c0.641,0,1.162-0.521,1.162-1.16V63.789c0.303-0.257,0.494-0.64,0.494-1.063V59.54C144.019,58.768,143.393,58.141,142.623,58.141z
			 M58.179,60.138h83.843v1.984h-0.494l0,0H58.577l0,0h-0.398V60.138z M58.68,112.902V97.974h82.848v14.929H58.68z M58.68,95.977
			V81.048h82.848v14.929H58.68z M58.68,79.051V64.12h82.848v14.931H58.68z M58.68,115.589v-0.689h3.619v0.689H58.68z
			 M137.903,115.589v-0.689h3.625v0.689H137.903z"/>
		<path fill="#6D6E70" d="M100.103,68.746c-1.567,0-2.843,1.272-2.843,2.835c0,1.568,1.275,2.843,2.843,2.843
			c1.565,0,2.839-1.274,2.839-2.843C102.941,70.019,101.667,68.746,100.103,68.746z"/>
		<path fill="#6D6E70" d="M100.103,102.601c-1.567,0-2.843,1.274-2.843,2.84c0,1.563,1.275,2.838,2.843,2.838
			c1.565,0,2.839-1.274,2.839-2.838C102.941,103.875,101.667,102.601,100.103,102.601z"/>
		<path fill="#6D6E70" d="M100.103,85.675c-1.567,0-2.843,1.271-2.843,2.84c0,1.563,1.275,2.835,2.843,2.835
			c1.565,0,2.839-1.271,2.839-2.835C102.941,86.946,101.667,85.675,100.103,85.675z"/>
	</g>
	<g>
		<path fill="#6D6E70" d="M174.663,48.476c-0.061-0.348-0.385-0.621-0.739-0.621h-6.518c-0.357,0-0.683,0.275-0.742,0.627
			l-2.591,15.311c-0.039,0.197,0.006,0.385,0.125,0.53c0.12,0.146,0.3,0.227,0.496,0.227h4.593v6.892l-0.125,0.053
			c-0.212,0.086-0.405,0.161-0.579,0.233c-0.807,0.315-1.421,0.567-1.996,0.825c-0.152,0.075-0.508,0.247-0.59,0.605
			c-0.041,0.183-0.001,0.364,0.098,0.477c0.136,0.177,0.343,0.278,0.566,0.278h7.994c0.215,0,0.443-0.1,0.518-0.214
			c0.145-0.169,0.192-0.349,0.149-0.564c-0.082-0.335-0.424-0.502-0.617-0.596c-0.574-0.257-1.209-0.52-1.941-0.801l-0.672-0.273
			l-0.058-6.915h4.6c0.188,0,0.365-0.078,0.485-0.219c0.123-0.143,0.173-0.327,0.143-0.525L174.663,48.476z"/>
		<g>
			<path fill="#6D6E70" d="M190.007,72.796h-38.691c-0.77,0-1.396,0.627-1.396,1.396v3.436c0,0.422,0.187,0.799,0.498,1.056v37.743
				c0,0.64,0.519,1.16,1.156,1.16h5.321c0.639,0,1.158-0.521,1.158-1.16v-1.524h25.458v1.524c0,0.64,0.52,1.16,1.159,1.16h5.077
				c0.641,0,1.163-0.521,1.163-1.16V78.697c0.306-0.255,0.5-0.64,0.5-1.069v-3.436C191.409,73.423,190.781,72.796,190.007,72.796z
				 M189.412,74.793v2.231h-37.494v-2.231H189.412z M152.416,112.902v-15.94h36.495v15.94H152.416z M152.416,94.965V79.022h36.495
				v15.942H152.416z M152.416,115.589v-0.689h3.64v0.689H152.416z M185.508,115.589v-0.689h3.403v0.689H185.508z"/>
			<path fill="#6D6E70" d="M170.664,84.156c-1.567,0-2.842,1.274-2.842,2.837c0,1.566,1.275,2.838,2.842,2.838
				c1.562,0,2.833-1.271,2.833-2.838C173.497,85.431,172.226,84.156,170.664,84.156z"/>
			<path fill="#6D6E70" d="M170.664,102.097c-1.567,0-2.842,1.269-2.842,2.832c0,1.568,1.275,2.843,2.842,2.843
				c1.562,0,2.833-1.274,2.833-2.843C173.497,103.365,172.226,102.097,170.664,102.097z"/>
		</g>
	</g>
	<path fill="#6D6E70" d="M308.617,85.24h-8.25V70.97c0-1.089-0.887-1.977-1.975-1.977h-3.869c-1.088,0-1.975,0.888-1.975,1.977
		v0.261h-74.258V70.97c0-1.089-0.887-1.977-1.975-1.977h-3.865c-1.09,0-1.977,0.888-1.977,1.977V85.24h-8.248
		c-0.797,0-1.445,0.648-1.445,1.443v3.553c0,0.453,0.209,0.858,0.555,1.124v25.048c0,0.65,0.529,1.179,1.178,1.179h5.916
		c0.646,0,1.174-0.528,1.174-1.179l0.002-3.146h91.631v3.146c0,0.65,0.527,1.179,1.178,1.179h5.912c0.648,0,1.18-0.528,1.18-1.179
		V91.373c0.336-0.265,0.551-0.676,0.551-1.137v-3.553C310.057,85.889,309.41,85.24,308.617,85.24z M298.369,85.24h-3.822V70.991
		l3.822-0.021V85.24z M292.551,73.228V85.24h-1.225v-4.99c0-0.396-0.145-1.396-0.406-1.829l-0.182-0.301l-0.33-0.12
		c-0.316-0.117-0.842-0.197-1.275-0.197h-27c-0.363,0-1.486,0.187-1.879,0.793l-0.107,0.219c-0.137,0.397-0.211,1.035-0.211,1.436
		v0.688h-9.033V80.25c0-0.398-0.145-1.41-0.414-1.839l-0.178-0.289l-0.32-0.119c-0.316-0.117-0.844-0.2-1.285-0.2h-26.998
		c-0.227,0-1.461,0.14-1.883,0.798l-0.105,0.224c-0.117,0.352-0.207,0.965-0.207,1.426v4.99h-1.221V73.228H292.551z M248.906,85.24
		H221.51v-4.99c0-0.13,0.014-0.281,0.033-0.422c0.066-0.016,0.127-0.028,0.164-0.028h26.998c0.049,0,0.098,0.003,0.146,0.005
		c0.031,0.167,0.055,0.338,0.055,0.445V85.24z M250.902,82.937h9.033v2.304h-9.033V82.937z M289.328,85.24h-27.395v-4.99
		c0-0.13,0.014-0.284,0.033-0.419c0.066-0.019,0.129-0.031,0.166-0.031h27c0.045,0,0.094,0.003,0.143,0.005
		c0.029,0.167,0.053,0.341,0.053,0.445V85.24z M216.293,70.97v0.841v13.43h-3.824l-0.018-14.249L216.293,70.97z M202.779,87.238
		h8.656h1.037h7.039h31.391h9.033h31.391h7.043h1.033h8.658v2.447h-0.553l0,0H203.225l0,0h-0.445V87.238z M207.609,111.264
		L207.609,111.264h-4.275V91.683h104.174v19.581h-4.275l0,0H207.609z M207.607,115.589h-4.273v-2.327h4.275L207.607,115.589z
		 M303.232,115.589v-2.327h4.275v2.327H303.232z"/>
	<g>
		<path fill="#6D6E70" d="M398.666,0h-79.695c-0.734,0-1.334,0.596-1.334,1.329v2.669c0,0.374,0.156,0.715,0.416,0.957v111.5
			c0,0.624,0.508,1.132,1.133,1.132h4.436c0.627,0,1.137-0.508,1.137-1.132v-1.118h68.121v1.118c0,0.624,0.508,1.132,1.135,1.132
			h4.439c0.623,0,1.133-0.508,1.133-1.132V4.963C399.842,4.718,400,4.377,400,3.998V1.329C400,0.596,399.402,0,398.666,0z
			 M319.633,1.998h78.369v1.336h-0.412l0,0h-77.621l0,0h-0.336V1.998z M320.049,113.337V5.332h77.541v108.005H320.049z
			 M320.049,115.589v-0.255h2.711v0.255H320.049z M394.877,115.589v-0.255h2.713v0.255H394.877z"/>
		<path fill="#6D6E70" d="M347.828,55.431c-1.854,0-3.363,1.508-3.363,3.362s1.51,3.363,3.363,3.363
			c1.855,0,3.363-1.509,3.363-3.363S349.684,55.431,347.828,55.431z"/>
		<circle fill="#6D6E70" cx="369.811" cy="58.793" r="3.363"/>
		<path fill="#6D6E70" d="M326.832,106.682h31.143V10.905h-31.143V106.682z M328.83,12.902h27.146v91.781H328.83V12.902z"/>
		<path fill="#6D6E70" d="M360.994,10.905v95.776h29.809V10.905H360.994z M388.807,104.684H362.99V12.902h25.816V104.684z"/>
	</g>
</g>
</svg>
