<?xml version="1.0" encoding="utf-8"?>
<!-- Generator: Adobe Illustrator 15.0.0, SVG Export Plug-In . SVG Version: 6.00 Build 0)  -->
<!DOCTYPE svg PUBLIC "-//W3C//DTD SVG 1.1//EN" "http://www.w3.org/Graphics/SVG/1.1/DTD/svg11.dtd">
<svg version="1.1" id="Layer_1" xmlns="http://www.w3.org/2000/svg" xmlns:xlink="http://www.w3.org/1999/xlink" x="0px" y="0px"
	 width="400px" height="174px" viewBox="0 0 400 174" enable-background="new 0 0 400 174" xml:space="preserve">
<g>
	<path fill="#6D6E70" d="M126.182,55.826c-1.632-7.843-8-13.633-15.381-14.189V3.278l0.465-0.164c1.39-0.484,2.786-0.98,3.27-1.235
		c0.634-0.299,0.731-0.683,0.745-0.757c0.078-0.26,0.035-0.513-0.134-0.798C114.987,0.122,114.719,0,114.434,0h-9.604
		c-0.285,0-0.549,0.146-0.779,0.434c-0.029,0.057-0.141,0.29-0.083,0.564c0.054,0.374,0.304,0.662,0.743,0.861
		c0.49,0.258,1.718,0.697,3.152,1.202l0.617,0.22v38.355c-7.379,0.557-13.744,6.341-15.355,14.095
		c-0.054,0.178-0.073,0.363-0.06,0.526l0.028,0.41c0.058,0.834,0.743,1.487,1.557,1.487h29.983c0.816,0,1.498-0.655,1.549-1.471
		c0.023-0.265,0.033-0.435,0.033-0.463C126.219,56.089,126.209,55.965,126.182,55.826z"/>
	<path fill="#6D6E70" d="M272.919,134.87h-1.238V91.908c0-1.031-0.838-1.869-1.869-1.869h-3.078c-1.031,0-1.869,0.838-1.869,1.869
		v1.943h-21.217v-1.943c0-1.031-0.838-1.869-1.868-1.869H238.7c-1.03,0-1.869,0.838-1.869,1.869v42.962h-1.238
		c-1.664,0-3.018,1.351-3.018,3.011v9.355v0.172v24.501c0,1.031,0.839,1.869,1.869,1.869h3.078c1.031,0,1.869-0.838,1.869-1.869
		v-12.231h29.729v12.231c0,1.031,0.838,1.869,1.869,1.869h3.078c1.031,0,1.869-0.838,1.869-1.869v-24.501v-0.172v-9.355
		C275.937,136.221,274.583,134.87,272.919,134.87z M266.992,92.167h2.561v42.703h-2.561V92.167z M264.864,102.815h-21.217v-1.081
		h21.217V102.815z M264.864,104.943v3.627h-21.217v-3.627H264.864z M264.864,110.698v24.172h-21.217v-24.172H264.864z
		 M264.864,95.979v3.627h-21.217v-3.627H264.864z M238.96,92.167h2.56v42.703h-2.56V92.167z M234.703,137.881
		c0-0.486,0.399-0.883,0.89-0.883h1.238h6.816h21.217h6.816h1.238c0.49,0,0.89,0.396,0.89,0.883v7.399h-39.105V137.881z
		 M239.392,147.408h29.729v7.032h-29.729V147.408z M234.703,171.65v-24.242h2.561v24.242H234.703z M239.392,157.55v-0.981h29.729
		v0.981H239.392z M273.809,171.65h-2.561v-24.242h2.561V171.65z"/>
	<g>
		<path fill="#6D6E70" d="M40.344,134.87H6.816v-24.172h1.826c1.093,0,1.984-0.89,1.984-1.983v-3.921
			c0-1.091-0.891-1.979-1.984-1.979H6.816v-1.081h1.826c1.093,0,1.984-0.891,1.984-1.983V95.83c0-1.09-0.891-1.979-1.984-1.979
			H6.816v-1.943c0-1.031-0.838-1.869-1.868-1.869H1.868C0.837,90.039,0,90.877,0,91.908v80.001c0,1.031,0.837,1.869,1.868,1.869
			h3.081c1.029,0,1.868-0.838,1.868-1.869v-12.231h29.729v12.231c0,1.031,0.838,1.869,1.867,1.869h3.082
			c1.029,0,1.867-0.838,1.867-1.869v-24.501v-0.172v-9.355C43.361,136.221,42.007,134.87,40.344,134.87z M7.196,104.943h1.302v3.627
			H7.196V104.943z M7.196,95.979h1.302v3.627H7.196V95.979z M4.688,171.65H2.128V92.167h2.561V171.65z M36.545,157.55H6.816v-0.981
			h29.729V157.55z M36.545,154.44H6.816v-7.034l29.729,0.002V154.44z M41.233,171.65h-2.56v-24.242h2.56V171.65z M41.233,145.28
			l-34.417-0.002v-8.28h33.527c0.49,0,0.889,0.396,0.889,0.883V145.28z"/>
		<path fill="#6D6E70" d="M217.409,90.039h-3.081c-1.029,0-1.867,0.838-1.867,1.869v1.943h-1.826c-1.095,0-1.984,0.889-1.984,1.979
			v3.921c0,1.093,0.89,1.983,1.984,1.983h1.826v1.081h-1.826c-1.095,0-1.984,0.888-1.984,1.979v3.921
			c0,1.094,0.89,1.983,1.984,1.983h1.826v24.172h-33.528c-1.664,0-3.017,1.351-3.017,3.011v9.355v0.172v24.501
			c0,1.031,0.838,1.869,1.867,1.869h3.081c1.03,0,1.868-0.838,1.868-1.869v-12.231h29.729v12.231c0,1.031,0.838,1.869,1.867,1.869
			h3.081c1.029,0,1.867-0.838,1.867-1.869V91.908C219.276,90.877,218.438,90.039,217.409,90.039z M212.081,99.606h-1.303v-3.627
			h1.303V99.606z M212.081,108.57h-1.303v-3.627h1.303V108.57z M178.044,137.881c0-0.486,0.399-0.883,0.889-0.883h33.528v8.28
			l-34.417,0.002V137.881z M182.732,147.408l29.729-0.002v7.034h-29.729V147.408z M178.044,171.65v-24.242h2.56v24.242H178.044z
			 M182.732,157.55v-0.981h29.729v0.981H182.732z M217.148,171.65h-2.56V92.167h2.56V171.65z"/>
		<g>
			<g>
				<path fill="#6D6E70" d="M128.301,134.87h-1.238v-9.755h-2.128v9.755h-2.561v-9.755h-2.128v9.755H99.03v-9.755h-2.128v9.755
					h-2.561v-9.755h-2.128v9.755h-1.238c-1.664,0-3.018,1.351-3.018,3.011v9.355v0.172v24.501c0,1.031,0.838,1.869,1.867,1.869
					h3.082c1.029,0,1.868-0.838,1.868-1.869v-12.231h29.728v12.231c0,1.031,0.838,1.869,1.868,1.869h3.081
					c1.03,0,1.868-0.838,1.868-1.869v-24.501v-0.172v-9.355C131.319,136.221,129.965,134.87,128.301,134.87z M90.086,137.881
					c0-0.486,0.399-0.883,0.89-0.883h1.238h6.816h21.216h6.816h1.238c0.491,0,0.89,0.396,0.89,0.883v7.399H90.086V137.881z
					 M94.774,147.408h29.728v7.032H94.774V147.408z M90.086,171.65v-24.242h2.56v24.242H90.086z M94.774,157.55v-0.981h29.728v0.981
					H94.774z M129.191,171.65h-2.56v-24.242h2.56V171.65z"/>
				<path fill="#6D6E70" d="M94.342,92.167h2.561v22.71h2.128v-4.179h21.216v4.179h2.128v-22.71h2.561v22.71h2.128V91.908
					c0-1.031-0.838-1.869-1.868-1.869h-3.081c-1.029,0-1.868,0.838-1.868,1.869v1.943H99.03v-1.943c0-1.031-0.838-1.869-1.868-1.869
					h-3.081c-1.029,0-1.868,0.838-1.868,1.869v22.969h2.128V92.167z M99.03,108.57v-3.627h21.216v3.627H99.03z M99.03,102.815
					v-1.081h21.216v1.081H99.03z M120.247,95.979v3.627H99.03v-3.627H120.247z"/>
			</g>
			<g>
				<g>
					<path fill="#6D6E70" d="M56.52,106.913l-0.02,0.513c-0.083,2.461,0.906,3.447,3.3,5.829l0.178,0.173
						c0.756,0.623,1.945,1.15,2.593,1.15h10.79c0.651,0,1.837-0.527,2.627-1.184l0.136-0.136c2.397-2.385,3.389-3.371,3.303-5.833
						l-0.019-0.513H56.52z"/>
					<path fill="#6D6E70" d="M162.757,106.913h-22.884l-0.02,0.513c-0.083,2.467,0.912,3.457,3.317,5.847l0.158,0.155
						c0.759,0.623,1.945,1.15,2.591,1.15h10.792c0.651,0,1.837-0.527,2.627-1.184l0.146-0.145c2.392-2.38,3.381-3.365,3.292-5.824
						L162.757,106.913z"/>
				</g>
				<path fill="#6D6E70" d="M177.074,113.812H43.267l-1.144,0.081v6.239l0.08,1.145h5.378v50.996c0,0.83,0.676,1.505,1.507,1.505
					h3.309c0.827,0,1.501-0.675,1.501-1.505V126.18h112.048v46.094c0,0.83,0.675,1.505,1.504,1.505h3.303
					c0.833,0,1.51-0.675,1.51-1.505v-50.996h3.746l1.145-0.08v-6.24L177.074,113.812z M170.136,171.65h-2.062v-47.6H51.771v47.6
					h-2.062v-50.373h120.427V171.65z M175.026,119.149H44.25v-3.209h130.776V119.149z"/>
			</g>
		</g>
	</g>
	<g>
		<g>
			<g>
				<path fill="#6D6E70" d="M347.549,96.534v0.069c0,4.871-3.312,8.843-7.384,8.843c-4.077,0-7.388-3.972-7.388-8.843v-0.069
					H347.549z"/>
				<path fill="#6D6E70" d="M341.993,90.977h0.052c0.161,0,0.44,0.02,0.764,0.045c0.203,0.014,0.427,0.03,0.642,0.037
					c0.034-0.132,0.1-0.381,0.023-0.494c-0.023-0.036-0.072-0.056-0.138-0.056h-0.008c0-0.009-0.017-0.009-0.017-0.009
					c-0.013,0-0.013-0.008-0.026-0.014l0,0c-0.01,0-0.022-0.006-0.022-0.011c0-0.009,0-0.009-0.014-0.02
					c-0.014-0.017-0.025-0.044-0.014-0.073c0.027-0.139,0.367-0.43,0.537-0.496c0.027-0.011,0.05-0.02,0.079-0.025
					c0.013,0,0.013,0,0.04-0.005c0.009,0,0.009,0,0.049,0c0,0,0,0,0.008,0.005c0.013,0.006,0.028,0.006,0.04,0.006
					c0.016,0.009,0.024,0.009,0.024,0.02c0.014,0.006,0.024,0.02,0.024,0.02c0.013,0,0.013,0.02,0.026,0.02
					c0.013,0.017,0.013,0.027,0.026,0.035v0.018c0,0.021,0,0.03,0,0.047v0.02c0,0.021,0,0.041,0,0.047c0,0,0,0,0,0.008
					c0,0.006,0,0.012-0.014,0.012c0,0.02-0.013,0.038-0.026,0.055c-0.013,0.028-0.062,0.147-0.149,0.912c0.04,0,0.076,0,0.137,0
					c0.013,0,0.013,0,0.026,0c0.223-0.275,0.456-0.486,0.702-0.647c0.452-0.281,1.077-0.455,1.681-0.455
					c0.327,0,0.628,0.05,0.916,0.152c0.602,0.208,0.802,0.566,0.814,0.586c0.014,0.011,0.014,0.02,0.014,0.03
					c0,0.044-0.039,0.072-0.05,0.083h0.011c-0.035,0.02-0.084,0.069-0.376,0.169c-0.035,0.02-0.062,0.039-0.101,0.05
					c-0.537,0.198-1.077,0.373-1.604,0.509l-0.038,0.006c-0.073,0.02-0.14,0.035-0.213,0.055c0.063,0.036,0.112,0.078,0.162,0.114
					c0.523,0.382,1.419,1.817,1.04,3.394c-0.047,0.225-0.141,0.465-0.249,0.72c-0.013,0.027-0.037,0.038-0.062,0.038h-7.073
					c-0.026,0-0.062-0.038-0.062-0.061c-0.025-0.024-0.04-0.059-0.04-0.083c0-0.006,0-0.006,0-0.006
					c-0.099-0.21-0.186-0.425-0.262-0.644c-0.339-0.882-0.188-2,0.388-2.844C340.202,91.446,341.03,91.002,341.993,90.977z"/>
				<path fill="#6D6E70" d="M335.311,93.605c0.804-0.691,2.761-2.836,2.973-3.4c0.099-0.258,0.379-0.377,0.462-0.421v-0.006
					c0.087-0.024,0.177-0.044,0.263-0.044c0.025,0,0.039,0,0.065,0c0.014,0,0.05,0,0.077,0c0.007,0,0.033,0,0.05,0
					c0.035-0.211,0.109-0.565,0.035-0.718c-0.062-0.009-0.148-0.072-0.162-0.092c-0.026-0.011-0.026-0.02-0.026-0.036
					c0,0,0-0.005-0.014-0.014c-0.013-0.039-0.013-0.083,0-0.124c0.04-0.145,0.202-0.359,0.341-0.442
					c0.124-0.063,0.265-0.061,0.329,0.017c0.022,0.036,0.043,0.1,0.012,0.208l0,0c-0.012,0.02-0.012,0.027-0.028,0.048
					c-0.012,0.042-0.048,0.402-0.074,1.247c0.149,0.078,0.263,0.211,0.364,0.377c0.05,0.086,0.083,0.172,0.11,0.262
					c0.025,0.098,0.052,0.202,0.086,0.341c0,0.033-0.008,0.056-0.034,0.075c-0.402,0.254-0.754,0.594-1.016,0.996
					c-0.678,1.019-0.867,2.366-0.461,3.441c0.06,0.159,0.119,0.314,0.186,0.476c0.014,0.017,0.014,0.035,0,0.055
					c-0.025,0.02-0.038,0.03-0.066,0.03h-4.942c-0.023,0-0.049-0.011-0.049-0.019c-0.012-0.012-0.012-0.031-0.012-0.05
					C333.865,94.974,334.382,94.39,335.311,93.605z"/>
				<path fill="#6D6E70" d="M330.482,92.297c0.475-0.163,0.966-0.255,1.466-0.255c0.655,0,1.271,0.139,1.842,0.424
					c0.225,0.098,0.439,0.225,0.639,0.374c-0.11-0.204-0.199-0.415-0.272-0.62c-0.403-1.095-0.341-2.267,0.151-3.314
					c0.011-0.03,0.045-0.044,0.087-0.03c1.026,0.477,1.817,1.324,2.221,2.383c0.013,0.025,0.013,0.053-0.013,0.066
					c-0.667,0.749-1.344,1.452-1.721,1.78c-0.75,0.645-1.301,1.221-1.594,1.925c0,0.025-0.02,0.044-0.046,0.044
					c-0.013,0-0.013-0.005-0.023-0.005c-0.218-0.072-0.394-0.139-0.559-0.217c-1.039-0.495-1.829-1.373-2.216-2.463
					C330.431,92.35,330.457,92.313,330.482,92.297z"/>
			</g>
			<path fill="#6D6E70" d="M378.104,101.118c0.089,1.076-0.805,2.164-3.16,3.31c-0.678,0.277-1.717,0.49-2.181,0.49
				c-3.487,0-6.962,0-10.463,0c-0.45,0-1.503-0.213-2.165-0.49c-2.374-1.146-3.251-2.233-3.176-3.31H378.104z"/>
			<path fill="#6D6E70" d="M354.978,137.376c0.072,2.735-0.792,5.481-3.11,8.396c-0.655,0.684-1.682,1.243-2.133,1.243
				c-3.413,0-6.81,0-10.236,0c-0.451,0-1.479-0.56-2.13-1.243c-2.309-2.914-3.187-5.66-3.11-8.396H354.978z"/>
			<path fill="#6D6E70" d="M316.472,142.247c0.037,1.759-0.439,3.511-1.72,5.396c-0.352,0.435-0.911,0.788-1.178,0.788
				c-1.881,0-3.761,0-5.646,0c-0.261,0-0.824-0.354-1.18-0.788c-1.292-1.885-1.765-3.637-1.712-5.396H316.472z"/>
			<path fill="#6D6E70" d="M386.721,162.823c0.523,1.439-1.167,3.529-3.275,4.445c-0.901,0.409-8.581,0.409-9.508,0
				c-2.077-0.916-3.796-3.006-3.272-4.445H386.721z"/>
		</g>
		<g>
			<path fill="#6D6E70" d="M327.89,129.113v-15.259h-26.974v15.259H327.89z M303.044,115.982h22.718v11.003h-22.718V115.982z"/>
			<ellipse fill="#6D6E70" cx="314.405" cy="121.484" rx="2.599" ry="2.502"/>
			<path fill="#6D6E70" d="M358.35,113.854h-26.973v15.259h26.973V113.854z M356.222,126.985h-22.717v-11.003h22.717V126.985z"/>
			<ellipse fill="#6D6E70" cx="344.865" cy="121.484" rx="2.594" ry="2.502"/>
			<path fill="#6D6E70" d="M398.469,103.749H290.196c-0.849,0-1.54,0.688-1.54,1.531v5.491c0,0.83,0.705,1.531,1.54,1.531h0.847
				v60.199c0,0.704,0.572,1.276,1.276,1.276h104.019c0.703,0,1.275-0.572,1.275-1.276v-60.199h0.855
				c0.844,0,1.531-0.688,1.531-1.531v-5.491C400,104.437,399.312,103.749,398.469,103.749z M293.171,112.303h3.232v18.362v18.123
				v2.022v18.123v2.717h-3.232V112.303z M325.125,166.806h-26.594v-13.867h26.594V166.806z M298.531,168.934h28.722h2.363h30.85
				h2.363h28.721v2.717h-93.019V168.934z M358.338,166.806h-26.594v-13.867h26.594V166.806z M391.55,166.806h-26.593v-13.867h26.593
				V166.806z M362.829,150.811v15.995h-2.363v-15.995h-30.85v15.995h-2.363v-15.995h-28.722v-2.022h28.722v-15.995h2.363v15.995
				h30.85v-15.995h2.363v15.995h28.721v2.022H362.829z M298.531,132.793h26.594v13.867h-26.594V132.793z M331.744,132.793h26.594
				v13.867h-26.594V132.793z M364.957,132.793h26.593v13.867h-26.593V132.793z M391.55,130.665h-28.721h-2.363h-30.85h-2.363
				h-28.722v-18.362h93.019V130.665z M395.485,171.65h-1.807v-2.717v-18.123v-2.022v-18.123v-18.362h1.807V171.65z M397.872,110.175
				h-0.259h-106.57h-0.259v-4.298h107.088V110.175z"/>
			<path fill="#6D6E70" d="M388.812,113.854H361.84v15.259h26.973V113.854z M386.685,126.985h-22.717v-11.003h22.717V126.985z"/>
			<ellipse fill="#6D6E70" cx="375.328" cy="121.484" rx="2.594" ry="2.502"/>
		</g>
	</g>
</g>
</svg>
