<?xml version="1.0" encoding="utf-8"?>
<!-- Generator: Adobe Illustrator 15.0.0, SVG Export Plug-In . SVG Version: 6.00 Build 0)  -->
<!DOCTYPE svg PUBLIC "-//W3C//DTD SVG 1.1//EN" "http://www.w3.org/Graphics/SVG/1.1/DTD/svg11.dtd">
<svg version="1.1" id="Layer_1" xmlns="http://www.w3.org/2000/svg" xmlns:xlink="http://www.w3.org/1999/xlink" x="0px" y="0px"
	 width="400px" height="190px" viewBox="0 0 400 190" enable-background="new 0 0 400 190" xml:space="preserve">
<g>
	<g>
		<path fill="#6D6E70" d="M345.266,0H291.71c-0.651,0-1.181,0.529-1.181,1.182v66.939c0,0.652,0.529,1.181,1.181,1.181h53.556
			c0.652,0,1.181-0.528,1.181-1.181V1.182C346.446,0.529,345.918,0,345.266,0z M344.085,66.94h-51.192V2.361h51.192V66.94z"/>
		<path fill="#6D6E70" d="M297.351,60.854h8.386c1.04,0,1.885-0.854,1.885-1.906s-0.845-1.909-1.885-1.909h-8.386
			c-1.043,0-1.893,0.857-1.893,1.909S296.308,60.854,297.351,60.854z"/>
	</g>
	<g>
		<path fill="#6D6E70" d="M135.067,0H81.512c-0.652,0-1.181,0.529-1.181,1.182v40.162c0,0.651,0.529,1.181,1.181,1.181h53.555
			c0.652,0,1.181-0.529,1.181-1.181V1.182C136.249,0.529,135.719,0,135.067,0z M133.887,40.162H82.693V2.361h51.193V40.162z"/>
		<path fill="#6D6E70" d="M104.096,36.018h8.386c1.041,0,1.888-0.858,1.888-1.91c0-1.051-0.847-1.906-1.888-1.906h-8.386
			c-1.04,0-1.885,0.855-1.885,1.906C102.21,35.159,103.056,36.018,104.096,36.018z"/>
	</g>
	<g>
		<path fill="#6D6E70" d="M291.712,0H238.16c-0.651,0-1.181,0.529-1.181,1.182v66.939c0,0.652,0.529,1.181,1.181,1.181h53.552
			c0.652,0,1.181-0.528,1.181-1.181V1.182C292.893,0.529,292.364,0,291.712,0z M290.531,66.94H239.34V2.361h51.191V66.94z"/>
		<path fill="#6D6E70" d="M243.79,60.854h8.393c1.041,0,1.889-0.854,1.889-1.906s-0.848-1.909-1.889-1.909h-8.393
			c-1.038,0-1.882,0.857-1.882,1.909S242.752,60.854,243.79,60.854z"/>
	</g>
	<g>
		<path fill="#6D6E70" d="M398.817,0h-53.552c-0.651,0-1.181,0.529-1.181,1.182v66.939c0,0.652,0.529,1.181,1.181,1.181h53.552
			c0.653,0,1.183-0.528,1.183-1.181V1.182C400,0.529,399.471,0,398.817,0z M397.637,66.94h-51.19V2.361h51.19V66.94z"/>
		<path fill="#6D6E70" d="M353.944,60.625h36.2c0.65,0,1.18-0.529,1.18-1.182V9.858c0-0.651-0.529-1.181-1.18-1.181h-36.2
			c-0.652,0-1.181,0.529-1.181,1.181v49.585C352.764,60.096,353.292,60.625,353.944,60.625z M355.125,58.263V44.096h33.839v14.167
			H355.125z M355.125,41.734V27.567h33.839v14.167H355.125z M388.964,11.039v14.166h-33.839V11.039H388.964z"/>
	</g>
	<path fill="#6D6E70" d="M72.587,29.049H1.181C0.529,29.049,0,29.578,0,30.23v158.428c0,0.65,0.529,1.181,1.181,1.181h71.406
		c0.652,0,1.181-0.53,1.181-1.181V30.23C73.768,29.578,73.239,29.049,72.587,29.049z M71.406,31.411v40.683H12.971V54.432
		c0-1.627-1.623-1.627-2.316-1.627c-0.691,0-2.309,0-2.309,1.627v17.662H2.361V31.411H71.406z M2.361,187.478V75.242h5.984v27.309
		c0,1.628,1.618,1.628,2.309,1.628c0.693,0,2.316,0,2.316-1.628V75.242h58.436v112.235H2.361z"/>
	<g>
		<path fill="#6D6E70" d="M239.34,108.328c0-0.652-0.527-1.181-1.18-1.181H135.07c-0.652,0-1.181,0.528-1.181,1.181v80.33
			c0,0.65,0.529,1.181,1.181,1.181h103.09c0.652,0,1.18-0.53,1.18-1.181V108.328z M236.979,175.045h-49.184v-65.536h49.184V175.045z
			 M185.435,109.509v65.536H136.25v-65.536H185.435z M136.25,177.406h49.184v10.071H136.25V177.406z M236.979,187.478h-49.184
			v-10.071h49.184V187.478z"/>
		<path fill="#6D6E70" d="M193.494,119.366h8.387c1.037,0,1.883-0.854,1.883-1.906c0-1.054-0.846-1.909-1.883-1.909h-8.387
			c-1.042,0-1.891,0.855-1.891,1.909C191.603,118.512,192.452,119.366,193.494,119.366z"/>
		<path fill="#6D6E70" d="M171.354,119.366h8.386c1.041,0,1.888-0.854,1.888-1.906c0-1.054-0.847-1.909-1.888-1.909h-8.386
			c-1.041,0-1.888,0.855-1.888,1.909C169.466,118.512,170.313,119.366,171.354,119.366z"/>
	</g>
	<g>
		<g>
			<path fill="#6D6E70" d="M131.29,93.309h-1.956v-2.264h-21.885v2.264h-1.956c-0.736,0-1.338,0.576-1.338,1.279
				c0,0.704,0.603,1.279,1.338,1.279h1.956v7.97l0.003,0.109c-0.001,0.034-0.003,0.071-0.003,0.109c0,2.144,1.746,3.889,3.892,3.889
				h14.103c2.086,0,3.794-1.649,3.887-3.714l0.003-8.363h1.957c0.736,0,1.338-0.575,1.338-1.279
				C132.628,93.885,132.025,93.309,131.29,93.309z"/>
			<path fill="#6D6E70" d="M107.059,90.396h22.667c0.492,0,0.894-0.4,0.894-0.892v-0.456c0-0.492-0.402-0.895-0.894-0.895h-8.511
				l0.345-1.643l-0.004-0.477c-0.097-0.717-0.713-1.268-1.456-1.268h-3.413c-0.742,0-1.358,0.551-1.455,1.268l-0.004,0.477
				l0.345,1.643h-8.512c-0.491,0-0.893,0.402-0.893,0.895v0.456C106.166,89.996,106.567,90.396,107.059,90.396z"/>
		</g>
		<g>
			<path fill="#6D6E70" d="M135.067,111.179h-3.327l-0.162-2.915c-0.035-0.625-0.552-1.114-1.179-1.114h-24.484
				c-0.626,0-1.144,0.489-1.18,1.114l-0.162,2.915h-1.499l-0.16-2.913c-0.035-0.627-0.552-1.116-1.179-1.116H77.253
				c-0.627,0-1.145,0.489-1.179,1.116l-0.16,2.913h-3.326c-0.652,0-1.181,0.528-1.181,1.181v76.299c0,0.65,0.529,1.181,1.181,1.181
				h62.479c0.652,0,1.181-0.53,1.181-1.181v-76.299C136.249,111.707,135.719,111.179,135.067,111.179z M107.033,109.512h22.25
				l0.093,1.667H106.94L107.033,109.512z M100.619,109.512l0.091,1.667H78.279l0.092-1.667H100.619z M133.887,187.478H73.769V113.54
				h2.176h1.087h24.927h3.733h24.932h1.088h2.175V187.478z"/>
			<path fill="#6D6E70" d="M123.163,123.469c1.592,0,2.886-1.297,2.886-2.887c0-1.593-1.294-2.888-2.886-2.888
				c-1.594,0-2.89,1.295-2.89,2.888C120.273,122.172,121.569,123.469,123.163,123.469z"/>
			<path fill="#6D6E70" d="M110.271,123.469c1.594,0,2.891-1.297,2.891-2.887c0-1.593-1.297-2.888-2.891-2.888
				c-1.59,0-2.883,1.295-2.883,2.888C107.389,122.172,108.682,123.469,110.271,123.469z"/>
			<path fill="#6D6E70" d="M97.384,123.469c1.592,0,2.887-1.297,2.887-2.887c0-1.593-1.295-2.888-2.887-2.888
				c-1.592,0-2.887,1.295-2.887,2.888C94.498,122.172,95.792,123.469,97.384,123.469z"/>
			<path fill="#6D6E70" d="M84.494,123.469c1.592,0,2.887-1.297,2.887-2.887c0-1.593-1.295-2.888-2.887-2.888
				c-1.592,0-2.887,1.295-2.887,2.888C81.607,122.172,82.901,123.469,84.494,123.469z"/>
			<path fill="#6D6E70" d="M124.591,140.705H83.065c-0.652,0-1.18,0.529-1.18,1.181v30.51c0,0.653,0.528,1.183,1.18,1.183h41.526
				c0.652,0,1.181-0.529,1.181-1.183v-30.51C125.771,141.234,125.243,140.705,124.591,140.705z M123.41,171.215H84.246v-28.148
				h39.164V171.215z"/>
			<path fill="#6D6E70" d="M127.496,132.147H80.16c-0.681,0-1.234,0.554-1.234,1.232v1.938c0,0.679,0.553,1.233,1.234,1.233h47.336
				c0.681,0,1.233-0.555,1.233-1.233v-1.938C128.729,132.701,128.177,132.147,127.496,132.147z"/>
		</g>
	</g>
	<g>
		<path fill="#6D6E70" d="M238.16,0H135.07c-0.652,0-1.181,0.529-1.181,1.182v66.939c0,0.652,0.529,1.181,1.181,1.181h103.09
			c0.652,0,1.18-0.528,1.18-1.181V1.182C239.34,0.529,238.812,0,238.16,0z M136.25,2.361h49.184V66.94H136.25V2.361z M236.979,66.94
			h-49.184V2.361h49.184V66.94z"/>
		<path fill="#6D6E70" d="M192.865,60.854h7.959c1.004,0,1.823-0.854,1.823-1.906s-0.819-1.909-1.823-1.909h-7.959
			c-1.004,0-1.819,0.857-1.819,1.909S191.861,60.854,192.865,60.854z"/>
		<path fill="#6D6E70" d="M179.813,57.039h-7.959c-1.004,0-1.822,0.857-1.822,1.909s0.818,1.906,1.822,1.906h7.959
			c1.005,0,1.822-0.854,1.822-1.906S180.818,57.039,179.813,57.039z"/>
	</g>
	<g>
		<path fill="#6D6E70" d="M398.817,107.149h-53.552c-0.651,0-1.181,0.529-1.181,1.183v80.326c0,0.65,0.529,1.181,1.181,1.181h53.552
			c0.653,0,1.183-0.53,1.183-1.181v-80.326C400,107.679,399.471,107.149,398.817,107.149z M346.446,124.035h17.071v0.311
			c0,1.46,1.188,2.65,2.647,2.65h11.755c1.464,0,2.654-1.19,2.654-2.65v-0.311h17.062v55.772h-51.19V124.035z M397.637,109.512
			v11.875h-51.19v-11.875H397.637z M346.446,187.478v-5.31h51.19v5.31H346.446z"/>
		<path fill="#6D6E70" d="M390.045,117.359c1.098,0,1.99-0.893,1.99-1.986c0-1.099-0.893-1.989-1.99-1.989
			c-1.099,0-1.996,0.891-1.996,1.989C388.049,116.467,388.946,117.359,390.045,117.359z"/>
		<path fill="#6D6E70" d="M381.478,117.359c1.097,0,1.987-0.893,1.987-1.986c0-1.099-0.891-1.989-1.987-1.989
			c-1.096,0-1.989,0.891-1.989,1.989C379.488,116.467,380.382,117.359,381.478,117.359z"/>
	</g>
	<g>
		<path fill="#6D6E70" d="M345.266,107.149H291.71c-0.651,0-1.181,0.529-1.181,1.183v80.326c0,0.65,0.529,1.181,1.181,1.181h53.552
			h0.004c0.652,0,1.181-0.53,1.181-1.181v-80.326C346.446,107.679,345.918,107.149,345.266,107.149z M344.085,109.512v65.573
			h-51.192v-65.573H344.085z M292.893,187.478v-10.031h51.192v10.031H292.893z"/>
		<path fill="#6D6E70" d="M297.351,119.408h8.386c1.04,0,1.885-0.856,1.885-1.908c0-1.051-0.845-1.91-1.885-1.91h-8.386
			c-1.043,0-1.893,0.859-1.893,1.91C295.458,118.552,296.308,119.408,297.351,119.408z"/>
	</g>
	<g>
		<path fill="#6D6E70" d="M260.745,118.734h8.382c1.043,0,1.893-0.859,1.893-1.91c0-1.052-0.85-1.909-1.893-1.909h-8.382
			c-1.042,0-1.89,0.857-1.89,1.909C258.855,117.875,259.703,118.734,260.745,118.734z"/>
		<path fill="#6D6E70" d="M260.745,169.681h8.382c1.043,0,1.893-0.854,1.893-1.906c0-1.051-0.85-1.903-1.893-1.903h-8.382
			c-1.042,0-1.89,0.853-1.89,1.903C258.855,168.826,259.703,169.681,260.745,169.681z"/>
		<path fill="#6D6E70" d="M260.745,152.703h8.382c1.043,0,1.893-0.857,1.893-1.908c0-1.052-0.85-1.909-1.893-1.909h-8.382
			c-1.042,0-1.89,0.857-1.89,1.909C258.855,151.846,259.703,152.703,260.745,152.703z"/>
		<path fill="#6D6E70" d="M260.745,135.717h8.382c1.043,0,1.893-0.854,1.893-1.909c0-1.053-0.85-1.906-1.893-1.906h-8.382
			c-1.042,0-1.89,0.854-1.89,1.906C258.855,134.863,259.703,135.717,260.745,135.717z"/>
		<path fill="#6D6E70" d="M291.715,107.149L291.715,107.149h-53.554h-0.001c-0.651,0-1.181,0.529-1.181,1.183v80.326
			c0,0.65,0.529,1.181,1.181,1.181h53.555c0.653,0,1.181-0.53,1.181-1.181v-80.326C292.896,107.679,292.368,107.149,291.715,107.149
			z M290.535,187.478H239.34v-10.031h51.195V187.478z M290.535,175.085H239.34v-14.616h51.195V175.085z M290.535,158.107H239.34
			v-14.625h51.195V158.107z M290.535,141.12H239.34v-14.622h51.195V141.12z M290.535,124.137H239.34v-14.625h51.195V124.137z"/>
	</g>
</g>
</svg>
