<?xml version="1.0" encoding="utf-8"?>
<!-- Generator: Adobe Illustrator 15.0.0, SVG Export Plug-In . SVG Version: 6.00 Build 0)  -->
<!DOCTYPE svg PUBLIC "-//W3C//DTD SVG 1.1//EN" "http://www.w3.org/Graphics/SVG/1.1/DTD/svg11.dtd">
<svg version="1.1" id="Layer_1" xmlns="http://www.w3.org/2000/svg" xmlns:xlink="http://www.w3.org/1999/xlink" x="0px" y="0px"
	 width="100px" height="35px" viewBox="0 0 100 35" enable-background="new 0 0 100 35" xml:space="preserve">
<g>
	<path fill="#00C1F2" d="M24.907,26.989c-2.632-2.169-6.003-3.468-9.678-3.468c-4.578,0-8.291-3.713-8.291-8.292
		c0,8.413,6.819,15.229,15.231,15.229c4.578,0,8.29,3.712,8.29,8.291C30.459,34.016,28.298,29.782,24.907,26.989z"/>
	<path fill="#2D32AA" d="M15.229,6.94c4.578,0,8.291,3.712,8.291,8.291c0,2.442-1.057,4.639-2.736,6.158
		c2.332,0.635,4.478,1.822,6.261,3.452c2.217-2.726,3.414-6.097,3.414-9.61C30.459,6.819,23.64,0,15.229,0C6.819,0,0,6.819,0,15.23
		c0,4.736,2.161,8.967,5.552,11.759c1.325,1.091,2.837,1.964,4.479,2.559c1.623,0.593,3.373,0.911,5.198,0.911h6.94
		c-8.412,0-15.231-6.816-15.231-15.229C6.938,10.652,10.651,6.94,15.229,6.94z"/>
</g>
<g>
	<path fill="#444444" d="M43.805,17.775v-6.999h2.335v11.958h-2.289v-2.07h-0.125c-0.275,0.638-0.715,1.169-1.319,1.592
		c-0.605,0.423-1.356,0.634-2.254,0.634c-0.768,0-1.447-0.17-2.036-0.51c-0.589-0.34-1.051-0.845-1.386-1.514
		c-0.335-0.67-0.502-1.497-0.502-2.483v-7.606h2.328v7.326c0,0.814,0.226,1.464,0.677,1.946s1.038,0.724,1.759,0.724
		c0.436,0,0.871-0.108,1.304-0.327c0.433-0.218,0.794-0.547,1.082-0.988S43.81,18.455,43.805,17.775z"/>
	<path fill="#444444" d="M53.75,22.976c-1.121,0-2.1-0.257-2.934-0.771c-0.836-0.514-1.485-1.232-1.947-2.156
		c-0.462-0.924-0.693-2.004-0.693-3.239c0-1.24,0.23-2.325,0.693-3.254c0.461-0.929,1.111-1.65,1.947-2.165
		c0.834-0.514,1.812-0.771,2.934-0.771s2.1,0.257,2.936,0.771c0.836,0.514,1.484,1.235,1.945,2.165
		c0.463,0.929,0.693,2.014,0.693,3.254c0,1.235-0.23,2.315-0.693,3.239c-0.461,0.924-1.109,1.643-1.945,2.156
		S54.871,22.976,53.75,22.976z M53.758,21.021c0.727,0,1.328-0.191,1.807-0.576c0.477-0.384,0.832-0.895,1.062-1.533
		s0.346-1.342,0.346-2.11c0-0.763-0.115-1.465-0.346-2.106c-0.23-0.641-0.586-1.156-1.062-1.545c-0.479-0.39-1.08-0.584-1.807-0.584
		c-0.73,0-1.338,0.194-1.816,0.584c-0.48,0.389-0.836,0.904-1.068,1.545c-0.23,0.641-0.346,1.343-0.346,2.106
		c0,0.768,0.115,1.471,0.346,2.11c0.232,0.639,0.588,1.149,1.068,1.533C52.42,20.83,53.027,21.021,53.758,21.021z"/>
	<path fill="#444444" d="M66.95,10.777v1.868h-6.531v-1.868H66.95z M62.17,7.912h2.328v11.312c0,0.451,0.067,0.79,0.202,1.016
		s0.311,0.379,0.525,0.459c0.216,0.081,0.45,0.121,0.705,0.121c0.187,0,0.35-0.013,0.49-0.039c0.14-0.025,0.249-0.047,0.327-0.062
		l0.42,1.923c-0.135,0.053-0.327,0.105-0.576,0.16s-0.561,0.084-0.934,0.089c-0.612,0.011-1.184-0.099-1.713-0.326
		c-0.529-0.229-0.958-0.582-1.284-1.06c-0.327-0.477-0.491-1.076-0.491-1.798V7.912z"/>
	<path fill="#444444" d="M72.451,22.999c-0.758,0-1.443-0.142-2.056-0.424c-0.612-0.283-1.097-0.694-1.452-1.234
		s-0.533-1.201-0.533-1.985c0-0.675,0.13-1.229,0.39-1.665c0.26-0.437,0.609-0.782,1.051-1.036s0.935-0.446,1.479-0.576
		c0.545-0.129,1.1-0.228,1.666-0.296c0.716-0.083,1.297-0.151,1.743-0.206s0.771-0.144,0.974-0.269s0.304-0.327,0.304-0.607v-0.054
		c0-0.68-0.191-1.207-0.572-1.581c-0.382-0.374-0.948-0.561-1.701-0.561c-0.784,0-1.4,0.173-1.849,0.518
		c-0.449,0.345-0.76,0.728-0.931,1.148l-2.188-0.498c0.26-0.727,0.64-1.314,1.141-1.763c0.501-0.449,1.078-0.776,1.732-0.981
		c0.653-0.205,1.341-0.308,2.062-0.308c0.478,0,0.985,0.056,1.522,0.167c0.537,0.111,1.04,0.315,1.51,0.611s0.855,0.718,1.156,1.265
		c0.301,0.548,0.451,1.257,0.451,2.129v7.94h-2.272V21.1h-0.094c-0.15,0.301-0.377,0.597-0.678,0.888
		c-0.301,0.29-0.688,0.532-1.159,0.724C73.676,22.903,73.11,22.999,72.451,22.999z M72.957,21.131c0.644,0,1.195-0.127,1.654-0.382
		c0.459-0.254,0.81-0.588,1.051-1c0.241-0.413,0.362-0.855,0.362-1.327V16.88c-0.083,0.083-0.243,0.16-0.479,0.23
		c-0.235,0.07-0.504,0.13-0.806,0.179c-0.301,0.05-0.594,0.093-0.879,0.132c-0.286,0.039-0.524,0.072-0.717,0.098
		c-0.451,0.057-0.862,0.153-1.233,0.288s-0.667,0.328-0.888,0.58s-0.331,0.585-0.331,1c0,0.576,0.213,1.011,0.639,1.304
		C71.755,20.984,72.298,21.131,72.957,21.131z"/>
	<path fill="#444444" d="M80.901,22.734V10.777h2.25v1.899h0.125c0.218-0.644,0.604-1.151,1.156-1.522s1.179-0.557,1.88-0.557
		c0.145,0,0.317,0.005,0.518,0.016c0.199,0.01,0.356,0.023,0.471,0.039v2.227c-0.094-0.026-0.26-0.056-0.498-0.09
		c-0.239-0.034-0.478-0.05-0.716-0.05c-0.551,0-1.04,0.115-1.468,0.346c-0.429,0.231-0.767,0.55-1.016,0.958
		c-0.25,0.408-0.374,0.871-0.374,1.39v7.302H80.901z"/>
	<path fill="#444444" d="M93.495,22.976c-1.179,0-2.191-0.253-3.04-0.759s-1.503-1.22-1.962-2.141
		c-0.46-0.922-0.689-2.002-0.689-3.243c0-1.225,0.229-2.304,0.689-3.239c0.459-0.934,1.103-1.663,1.931-2.188
		c0.827-0.524,1.797-0.786,2.907-0.786c0.675,0,1.329,0.112,1.962,0.335s1.201,0.573,1.705,1.051c0.503,0.478,0.9,1.096,1.191,1.856
		c0.29,0.761,0.436,1.683,0.436,2.768v0.825h-9.506v-1.744h7.225c0-0.612-0.124-1.156-0.373-1.631
		c-0.249-0.475-0.599-0.85-1.048-1.125c-0.448-0.275-0.974-0.413-1.576-0.413c-0.653,0-1.224,0.16-1.709,0.479
		c-0.485,0.319-0.858,0.735-1.121,1.246c-0.262,0.511-0.393,1.065-0.393,1.662v1.363c0,0.799,0.142,1.479,0.424,2.039
		c0.283,0.561,0.679,0.988,1.188,1.281s1.103,0.439,1.783,0.439c0.44,0,0.843-0.063,1.206-0.19s0.678-0.318,0.942-0.572
		s0.467-0.568,0.607-0.942l2.203,0.397c-0.177,0.648-0.492,1.216-0.946,1.701s-1.022,0.861-1.705,1.129
		C95.144,22.842,94.366,22.976,93.495,22.976z"/>
</g>
</svg>
