<?xml version="1.0" encoding="utf-8"?>
<!-- Generator: Adobe Illustrator 15.0.0, SVG Export Plug-In . SVG Version: 6.00 Build 0)  -->
<!DOCTYPE svg PUBLIC "-//W3C//DTD SVG 1.1//EN" "http://www.w3.org/Graphics/SVG/1.1/DTD/svg11.dtd">
<svg version="1.1" id="Layer_1" xmlns="http://www.w3.org/2000/svg" xmlns:xlink="http://www.w3.org/1999/xlink" x="0px" y="0px"
	 width="390px" height="120px" viewBox="0 0 390 120" enable-background="new 0 0 390 120" xml:space="preserve">
<path fill="#B3B3B3" d="M210.167,77.305c-4.319-3.561-9.854-5.693-15.887-5.693c-7.515,0-13.61-6.095-13.61-13.612
	c0,13.812,11.193,24.999,25.002,24.999c7.516,0,13.608,6.094,13.608,13.61C219.281,88.839,215.733,81.889,210.167,77.305z"/>
<path fill="#CCCCCC" d="M194.28,44.393c7.515,0,13.609,6.093,13.609,13.61c0,4.009-1.734,7.616-4.489,10.108
	c3.827,1.042,7.35,2.991,10.276,5.667c3.639-4.475,5.604-10.008,5.604-15.775C219.281,44.193,208.088,33,194.28,33
	c-13.806,0-24.999,11.193-24.999,25.001c0,7.774,3.548,14.721,9.113,19.304c2.175,1.79,4.658,3.223,7.354,4.199
	c2.664,0.974,5.536,1.496,8.532,1.496h11.393c-13.809,0-25.002-11.189-25.002-24.999C180.67,50.486,186.765,44.393,194.28,44.393z"
	/>
</svg>
